<mxfile host="app.diagrams.net" modified="2024-04-16T10:20:43.631Z" agent="Mozilla/5.0 (Windows NT 10.0; Win64; x64; rv:124.0) Gecko/20100101 Firefox/124.0" version="24.2.5" etag="HfcNkYE2tul-G9FIQ_Nu" type="github">
  <diagram name="第 1 页" id="V8-n8_FriGJiyKp9su89">
    <mxGraphModel>
      <root>
        <mxCell id="0" />
        <mxCell id="1" parent="0" />
      </root>
    </mxGraphModel>
  </diagram>
</mxfile>
